<?xml version="1.0" standalone="no"?>
<!DOCTYPE svg PUBLIC "-//W3C//DTD SVG 20010904//EN"
 "http://www.w3.org/TR/2001/REC-SVG-20010904/DTD/svg10.dtd">
<svg version="1.0" xmlns="http://www.w3.org/2000/svg"
 width="572.000000pt" height="572.000000pt" viewBox="0 0 572.000000 572.000000"
 preserveAspectRatio="xMidYMid meet">
<metadata>
Created by potrace 1.14, written by Peter Selinger 2001-2017
</metadata>
<g transform="translate(0.000000,572.000000) scale(0.100000,-0.100000)"
fill="#000000" stroke="none">
<path d="M2798 5696 c-26 -13 -49 -21 -52 -18 -4 3 -6 0 -6 -6 0 -7 -4 -12 -9
-12 -9 0 -111 -47 -376 -175 -140 -67 -224 -106 -267 -125 -13 -5 -30 -14 -38
-19 -8 -5 -49 -25 -90 -44 -41 -19 -133 -63 -205 -98 -210 -100 -260 -122
-267 -121 -5 1 -8 -3 -8 -8 0 -6 -9 -10 -20 -10 -11 0 -20 -4 -20 -10 0 -5 -5
-10 -12 -10 -6 0 -44 -15 -82 -34 -92 -45 -307 -147 -421 -201 -108 -51 -221
-104 -415 -197 -80 -38 -166 -79 -193 -90 l-47 -21 5 -96 c2 -53 7 -136 10
-186 5 -93 10 -204 21 -405 6 -134 11 -216 19 -355 3 -55 7 -140 10 -190 4
-92 14 -284 21 -410 2 -38 6 -117 9 -175 3 -58 7 -141 9 -185 3 -44 8 -136 11
-205 12 -230 19 -352 30 -560 2 -41 7 -138 11 -215 3 -77 8 -158 9 -180 2 -22
4 -45 4 -52 1 -6 10 -15 22 -18 11 -4 50 -24 87 -44 37 -21 121 -66 187 -101
66 -34 153 -80 192 -101 105 -56 204 -109 318 -169 235 -124 271 -143 282
-153 7 -5 13 -6 13 -2 0 5 8 1 18 -7 9 -8 35 -24 57 -35 22 -11 78 -40 125
-65 47 -25 130 -69 185 -98 141 -75 188 -101 203 -112 6 -6 12 -7 12 -3 0 4 6
3 13 -3 6 -5 55 -32 107 -60 52 -28 138 -73 190 -101 52 -28 129 -68 170 -88
41 -21 77 -40 80 -43 3 -3 37 -22 76 -42 l70 -38 60 31 c93 49 302 158 379
199 39 21 115 61 170 90 55 29 123 64 150 79 28 14 53 30 57 36 4 5 8 6 8 1 0
-5 6 -4 13 2 11 9 168 92 327 174 36 18 67 36 68 41 2 4 12 7 22 7 10 0 20 3
22 8 2 4 34 23 71 42 196 101 442 232 451 241 6 5 18 9 28 9 10 0 18 4 18 8 0
4 15 15 33 23 17 8 86 43 152 78 66 35 176 93 245 129 69 35 131 70 138 76 7
7 14 47 17 97 7 117 13 227 19 344 11 202 16 292 21 370 3 44 7 125 10 180 3
55 7 132 10 170 2 39 7 124 10 190 3 66 8 154 11 195 2 41 7 113 9 160 2 47 7
123 10 170 8 147 16 272 20 360 3 47 7 121 10 165 2 44 7 127 10 185 3 58 8
141 10 185 3 44 7 124 10 178 2 54 8 103 11 109 5 7 2 8 -6 3 -9 -6 -11 -4 -6
4 5 7 10 45 12 84 l5 72 -83 38 c-46 22 -119 56 -163 77 -95 45 -219 103 -330
155 -44 20 -127 59 -185 87 -58 27 -132 63 -165 78 -33 16 -109 52 -170 81
-60 29 -112 53 -115 54 -3 1 -27 11 -53 23 -27 12 -53 22 -58 22 -5 0 -9 5 -9
10 0 6 -5 10 -10 10 -6 0 -54 21 -108 46 -53 25 -128 61 -167 79 -38 18 -108
51 -155 73 -47 22 -137 64 -200 94 -63 30 -146 69 -185 87 -38 18 -101 48
-140 67 -38 19 -75 34 -82 34 -6 0 -13 3 -15 8 -2 5 -133 68 -203 98 -5 2 -31
-7 -57 -20z"/>
</g>
</svg>
